<svg height="476pt" viewBox="-32 0 476 476.68458" width="476pt" xmlns="http://www.w3.org/2000/svg"><path d="m167.371094 335.027344c2.289062 2.289062 5.726562 2.972656 8.71875 1.734375 2.988281-1.238281 4.9375-4.152344 4.9375-7.390625v-92.6875h16c114.871094 0 208 117.128906 208 232v-160c0-123.710938-100.289063-200-224-200v-92.6875c0-3.234375-1.949219-6.152344-4.9375-7.390625-2.992188-1.234375-6.429688-.550781-8.71875 1.734375l-156.6875 156.6875c-3.125 3.125-3.125 8.1875 0 11.3125zm0 0" fill="#bddbff"/><path d="m189.027344 100.78125v-84.785156c0-6.46875-3.898438-12.300782-9.878906-14.777344-5.976563-2.476562-12.859376-1.109375-17.433594 3.464844l-156.6875 156.6875c-6.246094 6.25-6.246094 16.378906 0 22.625l156.6875 156.6875c4.574218 4.574218 11.457031 5.945312 17.433594 3.46875 5.980468-2.476563 9.878906-8.308594 9.878906-14.78125v-84.6875h8c114.472656 0 200 118.265625 200 224 0 4.417968 3.582031 8 8 8 4.417968 0 8-3.582032 8-8v-160c0-120.054688-91.695313-204.621094-224-207.902344zm208 283.566406c-31.558594-83.832031-106.929688-155.664062-200-155.664062h-16c-4.417969 0-8 3.582031-8 8v92.6875l-156.6875-156.6875 156.6875-156.6875v92.6875c0 4.417968 3.582031 8 8 8 127.199218 0 216 78.953125 216 192zm0 0" fill="#3d9ae2"/></svg>