<svg xmlns="http://www.w3.org/2000/svg" width="48" height="48" viewBox="0 0 48 48"><g stroke="#000" transform="translate(21 -1004.362)"><circle cx="3" cy="1028.362" r="24" fill="#239fdb" fill-rule="evenodd" stroke="none"/><path fill="#fff" stroke="none" style="line-height:normal;text-indent:0;text-align:start;text-decoration-line:none;text-decoration-style:solid;text-decoration-color:#000;text-transform:none;block-progression:tb;isolation:auto;mix-blend-mode:normal" d="m -12.499999,1019.3622 a 0.50005,0.50005 0 0 0 -0.5,0.5 l 0,1.5 0,1 0,3.5 0,5 0,3.5 0,1 0,1.5 a 0.50005,0.50005 0 0 0 0.5,0.5 l 31,0 a 0.50005,0.50005 0 0 0 0.5,-0.5 l 0,-6 0,-5 0,-6 a 0.50005,0.50005 0 0 0 -0.5,-0.5 l -31,0 z m 0.5,1 14.5000004,0 0,4.0488 c -1.966169,0.2497 -3.5,1.9191 -3.5,3.9512 0,2.0321 1.533865,3.6995 3.5,3.9492 l 0,4.0508 -14.5000004,0 0,-1 2.0000004,0 c 3.869351,0 7,-3.1306 7,-7 0,-3.8693 -3.130649,-7 -7,-7 l -2.0000004,0 0,-1 z m 15.5000004,0 14.4999996,0 0,1 -2,0 c -3.869351,0 -6.9999996,3.1307 -6.9999996,7 0,3.8694 3.1306486,7 6.9999996,7 l 2,0 0,1 -14.4999996,0 0,-4.0508 c 1.966135,-0.2497 3.5,-1.9171 3.5,-3.9492 0,-2.0321 -1.533831,-3.7015 -3.5,-3.9512 l 0,-4.0488 z m -15.5000004,2 2.0000004,0 c 2.374885,0 4.4061654,1.3572 5.3808594,3.3418 -0.4203708,-0.2186 -0.8911932,-0.3418 -1.3808594,-0.3418 l -0.5,0 -5.5000004,0 0,-3 z m 28,0 2,0 0,3 -5.5,0 -0.5,0 c -0.489666,0 -0.960489,0.1232 -1.380859,0.3418 0.974694,-1.9846 3.005974,-3.3418 5.380859,-3.3418 z m -13.4999996,3.0508 0,1.0195 c -0.85811,0.2248 -1.5,1.0044 -1.5,1.9297 0,0.9254 0.64189,1.703 1.5,1.9277 l 0,1.0215 c -1.421236,-0.2378 -2.5,-1.458 -2.5,-2.9492 0,-1.491 1.078843,-2.7113 2.5,-2.9492 z m 1,0 c 1.421157,0.2379 2.5,1.4582 2.5,2.9492 0,1.4912 -1.078764,2.7114 -2.5,2.9492 l 0,-1.0215 c 0.85811,-0.2247 1.5,-1.0023 1.5,-1.9277 0,-0.9253 -0.64189,-1.7049 -1.5,-1.9297 l 0,-1.0195 z m -15.5000004,0.9492 5.0000004,0 0,4 -5.0000004,0 0,-4 z m 6.0000004,0 c 0.715333,0 1.3747559,0.3805 1.7324219,1 0.357666,0.6195 0.357666,1.3805 0,2 -0.357666,0.6195 -1.0170889,1 -1.7324219,1 l 0,-4 z m 17.9999996,0 0,4 c -0.715333,0 -1.374755,-0.3805 -1.732422,-1 -0.3576656,-0.6195 -0.3576656,-1.3805 0,-2 0.357667,-0.6195 1.017089,-1 1.732422,-1 z m 1,0 5,0 0,4 -5,0 0,-4 z m -24.5,1 0,2 1,0 0,-2 -1,0 z m 28,0 0,2 1,0 0,-2 -1,0 z m -13.9999996,0.1484 0,1.7012 c -0.295152,-0.1725 -0.5,-0.4783 -0.5,-0.8496 0,-0.3713 0.204848,-0.679 0.5,-0.8516 z m 1,0 c 0.295152,0.1726 0.5,0.4803 0.5,0.8516 0,0.3713 -0.204848,0.6771 -0.5,0.8496 l 0,-1.7012 z m -13.5,0.3516 0,1 c 0,10e-5 0.223,0 0.5,0 0.277,0 0.5,10e-5 0.5,0 l 0,-1 -0.5,0 -0.5,0 z m 24.9999996,0 0,1 c 0,10e-5 0.223,0 0.5,0 0.277,0 0.5,10e-5 0.5,0 l 0,-1 -0.5,0 -0.5,0 z m -19.6191402,3.1563 c -0.974694,1.9845 -3.0059744,3.3437 -5.3808594,3.3437 l -2.0000004,0 0,-3 5.5000004,0 0.5,0 c 0.4896662,0 0.9604886,-0.1252 1.3808594,-0.3437 z m 15.2382812,0 c 0.42037,0.2185 0.891193,0.3437 1.380859,0.3437 l 0.5,0 5.5,0 0,3 -2,0 c -2.374885,0 -4.406165,-1.3592 -5.380859,-3.3437 z" color="#000" font-family="sans-serif" font-weight="400" overflow="visible" white-space="normal"/></g></svg>