<?xml version="1.0" encoding="iso-8859-1"?>
<!-- Generator: Adobe Illustrator 19.0.0, SVG Export Plug-In . SVG Version: 6.00 Build 0)  -->
<svg version="1.1" id="Layer_1" xmlns="http://www.w3.org/2000/svg" xmlns:xlink="http://www.w3.org/1999/xlink" x="0px" y="0px"
	 viewBox="0 0 512 512" style="enable-background:new 0 0 512 512;" xml:space="preserve">
<polygon style="fill:#64C37D;" points="401.024,268.822 268.822,401.024 219.347,351.549 11.359,143.571 143.571,11.359 
	184.447,52.235 "/>
<g>
	<polygon style="fill:#378B4F;" points="171.757,39.545 120.782,56.572 166.506,193.41 61.198,193.41 268.822,401.024 
		401.024,268.822 	"/>
	<path style="fill:#378B4F;" d="M192.276,60.067c-26.901,26.901-70.516,26.901-97.417,0l48.708-48.708L192.276,60.067z"/>
	<path style="fill:#378B4F;" d="M60.067,192.276c26.901-26.901,26.901-70.516,0-97.417l-48.708,48.708L60.067,192.276z"/>
</g>
<polygon style="fill:#64C37D;" points="443.998,357.867 266.67,417.119 257.514,389.715 191.911,193.41 151.271,71.789 
	328.599,12.537 389.04,193.41 "/>
<g>
	<polygon style="fill:#378B4F;" points="443.998,357.867 266.67,417.119 191.911,193.41 389.04,193.41 	"/>
	<path style="fill:#378B4F;" d="M350.436,77.867c-36.083,12.057-75.108-7.419-87.164-43.502l65.333-21.831L350.436,77.867z"/>
	<path style="fill:#378B4F;" d="M173.102,137.123c36.083-12.057,55.559-51.081,43.502-87.164L151.271,71.79L173.102,137.123z"/>
</g>
<rect x="273.06" y="148.059" transform="matrix(-0.3169 -0.9485 0.9485 -0.3169 221.8802 470.6844)" style="fill:#FFFFFF;" width="14.762" height="14.762"/>
<rect x="64.907" y="225.54" style="fill:#C6C5CA;" width="385.52" height="278.431"/>
<rect x="86.324" y="225.54" style="fill:#E0E0E2;" width="364.103" height="278.431"/>
<path style="fill:#C6C5CA;" d="M359.398,289.79c-44.287,0-80.317,33.628-80.317,74.962s36.03,74.962,80.317,74.962h99.057V289.79
	H359.398z"/>
<path style="fill:#E0E0E2;" d="M482.551,311.208v112.443h-125.83c-31.045,0-56.222-25.177-56.222-56.222
	c0-3.095,0.246-6.136,0.739-9.092c1.928-11.887,7.582-22.51,15.731-30.66c10.173-10.173,24.224-16.47,39.751-16.47H482.551z"/>
<path style="fill:#C6C5CA;" d="M482.551,404.911v18.741h-125.83c-31.045,0-56.222-25.177-56.222-56.222
	c0-3.095,0.246-6.136,0.739-9.092c0.096-0.086,0.15-0.182,0.171-0.278c5.097,26.59,31.506,46.851,63.343,46.851H482.551z"/>
<circle style="fill:#B87FD9;" cx="354.047" cy="364.756" r="21.418"/>
<g>
	<path style="fill:#FFFFFF;" d="M461.133,351.366h-17.134v-16.063h17.134V351.366z M427.935,351.366h-31.056v-16.063h31.056V351.366
		z"/>
	<path style="fill:#FFFFFF;" d="M115.771,429.006H99.707v-17.134h16.063V429.006z M115.771,395.808H99.707v-84.6h16.063V395.808z"/>
</g>
<circle style="fill:#FFDA44;" cx="445.073" cy="70.261" r="58.899"/>
<path style="fill:#DDB200;" d="M445.069,107.739c-28.87,0-52.871-20.776-57.909-48.19c-0.638,3.475-0.99,7.05-0.99,10.709
	c0,32.529,26.37,58.899,58.899,58.899s58.899-26.37,58.899-58.899c0-3.659-0.35-7.234-0.99-10.709
	C497.94,86.962,473.939,107.739,445.069,107.739z"/>
<path style="fill:#FFFFFF;" d="M441.429,97.223c-2.956-0.488-5.777-1.343-8.462-2.564c-2.686-1.221-4.954-2.692-6.804-4.414
	l3.701-5.359c0.308-0.437,0.726-0.803,1.253-1.099c0.527-0.294,1.086-0.443,1.677-0.443c0.617,0,1.247,0.161,1.889,0.482
	c0.643,0.321,1.342,0.713,2.101,1.176c0.758,0.463,1.586,0.932,2.487,1.407c0.9,0.475,1.928,0.867,3.084,1.176l1.426-14.573
	c-1.85-0.515-3.688-1.122-5.513-1.818c-1.825-0.696-3.47-1.637-4.935-2.824c-1.465-1.187-2.655-2.695-3.566-4.527
	c-0.912-1.831-1.369-4.127-1.369-6.887c0-2.037,0.411-4.023,1.234-5.958c0.822-1.934,2.024-3.675,3.605-5.222
	c1.581-1.547,3.527-2.818,5.841-3.811c2.313-0.993,4.959-1.49,7.942-1.49l0.424-4.349c0.077-0.731,0.398-1.39,0.964-1.979
	c0.564-0.588,1.297-0.881,2.197-0.881H455l-0.771,7.595c2.776,0.514,5.166,1.343,7.171,2.487c2.005,1.144,3.701,2.371,5.089,3.682
	l-2.93,4.279c-0.437,0.643-0.88,1.112-1.33,1.407s-0.983,0.443-1.6,0.443c-0.411,0-0.874-0.09-1.388-0.27
	c-0.514-0.179-1.079-0.405-1.696-0.675c-0.617-0.27-1.279-0.559-1.985-0.867s-1.459-0.578-2.255-0.81l-1.349,13.686
	c1.234,0.36,2.467,0.752,3.701,1.176s2.422,0.912,3.566,1.465c1.143,0.553,2.209,1.189,3.2,1.908c0.99,0.72,1.85,1.568,2.583,2.544
	c0.732,0.978,1.304,2.101,1.716,3.373c0.41,1.272,0.617,2.718,0.617,4.337c0,2.442-0.411,4.735-1.234,6.882
	c-0.824,2.146-2.03,4.042-3.624,5.686c-1.595,1.645-3.547,2.988-5.86,4.029c-2.313,1.041-4.96,1.677-7.942,1.908l-0.463,4.819
	c-0.077,0.72-0.398,1.369-0.964,1.947c-0.565,0.578-1.298,0.867-2.197,0.867h-4.395L441.429,97.223z M439.656,55.857
	c0,1.517,0.482,2.745,1.446,3.682c0.964,0.938,2.23,1.728,3.797,2.371l1.157-11.643c-1.182,0.18-2.178,0.443-2.988,0.79
	c-0.81,0.347-1.465,0.765-1.966,1.253c-0.501,0.488-0.867,1.034-1.099,1.638C439.772,54.552,439.656,55.188,439.656,55.857z
	 M456.001,80.8c0-1.465-0.469-2.634-1.407-3.508c-0.938-0.873-2.178-1.606-3.72-2.197l-1.234,12.722
	C453.881,87.071,456.001,84.732,456.001,80.8z"/>
<path d="M65.747,197.956c28.071-28.071,29.866-72.621,5.387-102.801L95.16,71.129c9.771,7.933,21.287,13.332,33.724,15.739
	l3.054-15.771c-9.275-1.796-17.902-5.701-25.339-11.407l36.972-36.972l26.447,26.449l11.359-11.358L143.571,0L0,143.571
	l60.067,60.064L65.747,197.956z M22.718,143.571l36.978-36.978c16.648,21.735,16.649,52.218-0.001,73.952L22.718,143.571z"/>
<rect x="273.059" y="148.048" transform="matrix(-0.9485 0.3169 -0.3169 -0.9485 595.6804 213.968)" width="14.76" height="14.76"/>
<path d="M396.658,190.865L333.671,2.374l-192.585,64.35l43.542,129.142l15.222-5.132l-16.531-49.029
	c32.843-15.026,50.884-51.266,43.049-86.541l32.24-10.773c12.632,27.807,40.442,45.064,70.054,45.064
	c5.486,0,11.033-0.608,16.557-1.834l36.201,108.334L396.658,190.865z M178.149,126.37l-16.695-49.515l49.56-16.56
	C216.193,87.121,202.656,114.321,178.149,126.37z M273.953,39.264L323.527,22.7l16.567,49.577
	C313.218,77.463,285.965,63.863,273.953,39.264z"/>
<path d="M276.611,199.054c5.087-5.15,11.649-9.167,18.979-11.616c17.599-5.882,36.152-1.494,44.113,10.432l13.36-8.919
	c-12.102-18.126-37.829-25.013-62.565-16.747c-9.711,3.245-18.465,8.627-25.317,15.562L276.611,199.054z"/>
<rect x="321.92" y="249.635" width="16.063" height="16.063"/>
<rect x="193.413" y="249.635" width="16.063" height="16.063"/>
<rect x="161.287" y="249.635" width="16.063" height="16.063"/>
<rect x="97.033" y="249.635" width="16.063" height="16.063"/>
<rect x="289.794" y="249.635" width="16.063" height="16.063"/>
<rect x="129.16" y="249.635" width="16.063" height="16.063"/>
<rect x="257.667" y="249.635" width="16.063" height="16.063"/>
<rect x="418.3" y="249.635" width="16.063" height="16.063"/>
<rect x="354.047" y="249.635" width="16.063" height="16.063"/>
<rect x="386.174" y="249.635" width="16.063" height="16.063"/>
<rect x="225.54" y="249.635" width="16.063" height="16.063"/>
<rect x="97.033" y="463.813" width="16.063" height="16.063"/>
<rect x="418.3" y="463.813" width="16.063" height="16.063"/>
<rect x="386.174" y="463.813" width="16.063" height="16.063"/>
<rect x="354.047" y="463.813" width="16.063" height="16.063"/>
<rect x="289.794" y="463.813" width="16.063" height="16.063"/>
<rect x="321.92" y="463.813" width="16.063" height="16.063"/>
<rect x="129.16" y="463.813" width="16.063" height="16.063"/>
<rect x="257.667" y="463.813" width="16.063" height="16.063"/>
<rect x="193.413" y="463.813" width="16.063" height="16.063"/>
<rect x="161.287" y="463.813" width="16.063" height="16.063"/>
<rect x="225.54" y="463.813" width="16.063" height="16.063"/>
<path d="M458.455,217.505H56.872V512h401.584v-80.317h32.127V303.176h-32.127V217.505z M442.392,495.937H72.935v-16.063h8.032
	V463.81h-8.032V265.695h8.032v-16.063h-8.032v-16.063h369.457v69.608h-85.671c-35.429,0-64.253,28.824-64.253,64.253
	s28.824,64.253,64.253,64.253h85.671V495.937z M474.519,415.62H356.721c-26.572,0-48.19-21.618-48.19-48.19
	c0-26.572,21.618-48.19,48.19-48.19h117.798V415.62z"/>
<path d="M445.069,3.327c-36.905,0-66.931,30.026-66.931,66.931s30.026,66.931,66.931,66.931S512,107.163,512,70.258
	S481.974,3.327,445.069,3.327z M445.069,121.125c-28.048,0-50.867-22.82-50.867-50.867s22.82-50.867,50.867-50.867
	c28.048,0,50.867,22.82,50.867,50.867S473.117,121.125,445.069,121.125z"/>
<path d="M465.004,71.316c-0.732-0.977-1.594-1.825-2.583-2.544c-0.99-0.719-2.056-1.356-3.2-1.908s-2.332-1.041-3.566-1.465
	c-1.234-0.424-2.467-0.816-3.701-1.176l1.349-13.686c0.797,0.231,1.549,0.501,2.255,0.81s1.369,0.598,1.985,0.867
	c0.617,0.27,1.182,0.495,1.696,0.675s0.977,0.27,1.388,0.27c0.617,0,1.15-0.148,1.6-0.443c0.45-0.296,0.893-0.765,1.33-1.407
	l2.93-4.279c-1.388-1.311-3.084-2.538-5.089-3.682c-2.005-1.144-4.395-1.973-7.171-2.487L455,33.265h-4.395
	c-0.9,0-1.632,0.293-2.197,0.881c-0.565,0.588-0.887,1.248-0.964,1.979l-0.424,4.349c-2.982,0-5.629,0.497-7.942,1.49
	c-2.313,0.994-4.26,2.264-5.841,3.811c-1.581,1.547-2.782,3.288-3.605,5.222c-0.822,1.935-1.234,3.922-1.234,5.958
	c0,2.76,0.456,5.056,1.369,6.887c0.912,1.831,2.101,3.34,3.566,4.527c1.465,1.187,3.11,2.128,4.935,2.824
	c1.825,0.696,3.662,1.302,5.513,1.818l-1.426,14.573c-1.157-0.308-2.186-0.7-3.084-1.176c-0.9-0.475-1.728-0.945-2.487-1.407
	c-0.758-0.463-1.459-0.855-2.101-1.176c-0.644-0.321-1.272-0.482-1.889-0.482c-0.591,0-1.15,0.148-1.677,0.443
	c-0.527,0.296-0.945,0.662-1.253,1.099l-3.701,5.359c1.85,1.722,4.119,3.193,6.804,4.414c2.685,1.221,5.507,2.075,8.462,2.564
	l-0.771,7.942h4.395c0.9,0,1.632-0.289,2.197-0.867c0.565-0.578,0.887-1.227,0.964-1.947l0.463-4.819
	c2.981-0.231,5.629-0.867,7.942-1.908c2.313-1.041,4.265-2.384,5.86-4.029c1.594-1.645,2.8-3.54,3.624-5.686
	c0.822-2.145,1.234-4.44,1.234-6.882c0-1.619-0.206-3.065-0.617-4.337C466.307,73.417,465.736,72.293,465.004,71.316z
	 M444.899,61.909c-1.568-0.643-2.834-1.433-3.797-2.371c-0.964-0.938-1.446-2.165-1.446-3.682c0-0.668,0.116-1.304,0.347-1.908
	c0.231-0.603,0.598-1.15,1.099-1.638c0.501-0.488,1.157-0.906,1.966-1.253c0.81-0.347,1.806-0.61,2.988-0.79L444.899,61.909z
	 M449.64,87.816l1.234-12.722c1.542,0.591,2.782,1.324,3.72,2.197s1.407,2.043,1.407,3.508
	C456.001,84.732,453.881,87.071,449.64,87.816z"/>
<path d="M324.594,364.753c0,16.239,13.21,29.449,29.449,29.449s29.449-13.211,29.449-29.449c0-16.239-13.211-29.449-29.449-29.449
	S324.594,348.514,324.594,364.753z M367.43,364.753c0,7.382-6.004,13.386-13.386,13.386s-13.386-6.004-13.386-13.386
	c0-7.382,6.004-13.386,13.386-13.386S367.43,357.371,367.43,364.753z"/>
<g>
</g>
<g>
</g>
<g>
</g>
<g>
</g>
<g>
</g>
<g>
</g>
<g>
</g>
<g>
</g>
<g>
</g>
<g>
</g>
<g>
</g>
<g>
</g>
<g>
</g>
<g>
</g>
<g>
</g>
</svg>
